<svg xmlns="http://www.w3.org/2000/svg" xmlns:xlink="http://www.w3.org/1999/xlink" fill="none" version="1.1" width="18" height="18" viewBox="0 0 18 18"><defs><clipPath id="master_svg0_653_5490"><rect x="0" y="0" width="18" height="18" rx="0"/></clipPath></defs><g clip-path="url(#master_svg0_653_5490)"><g><path d="M7.34190125,0.94775390625L10.65769125,0.94775390625C11.03664125,0.94775390625,11.36821125,1.27933290625,11.36821125,1.65827990625C11.36821125,2.03722390625,11.03663125,2.36880390625,10.65769125,2.36880390625L7.34190125,2.36880390625C6.96295125,2.36880390625,6.63137125,2.03722390625,6.63137125,1.65827990625C6.63137125,1.27933290625,6.96295125,0.94775390625,7.34190125,0.94775390625ZM2.6050572499999998,3.31617390625L15.39453125,3.31617390625C15.77343125,3.31617390625,16.10503125,3.64775390625,16.10503125,4.02670390625C16.10503125,4.40564390625,15.77343125,4.73722390625,15.39453125,4.73722390625L2.6050572499999998,4.73722390625C2.22611025,4.73722390625,1.89453125,4.40564390625,1.89453125,4.02670390625C1.89453125,3.64775390625,2.22611025,3.31617390625,2.6050572499999998,3.31617390625Z" fill="#FFFFFF" fill-opacity="1" style="mix-blend-mode:passthrough"/></g><g><path d="M13.262715625,17.0529703125L4.7363856250000005,17.0529703125C4.215325625,17.0529703125,3.741645625,16.7213703125,3.694277625,16.247770312500002L2.794277195,6.8214103125C2.746908825,6.2056223125,3.220592625,5.6845703125,3.883755625,5.6845703125L14.304815625,5.6845703125C14.967915625,5.6845703125,15.394315625,6.2056233125,15.346915625,6.8214103125L14.304815625,16.247770312500002C14.257415625,16.7213703125,13.783715625,17.0529703125,13.262715625,17.0529703125ZM12.931115625,15.6319403125L13.878515625,7.1056203125L4.262695625,7.1056203125L5.067965624999999,15.6319403125L12.931115625,15.6319403125Z" fill="#FFFFFF" fill-opacity="1" style="mix-blend-mode:passthrough"/></g><g><path d="M7.341385375,16.57881484375C6.962438375,16.57881484375,6.630859375,16.24721484375,6.630859375,15.86824484375L6.630859375,6.86824084375C6.630859375,6.48929384375,6.962438375,6.15771484375,7.341385375,6.15771484375C7.720329375,6.15771484375,8.051909375,6.48929384375,8.051909375,6.86824084375L8.051909375,15.86824484375C8.051909375,16.24721484375,7.720329375,16.57881484375,7.341385375,16.57881484375ZM10.657179375,16.57881484375C10.278229375,16.57881484375,9.946649375,16.24721484375,9.946649375,15.86824484375L9.946649375,6.86824084375C9.946649375,6.48929384375,10.278229375,6.15771484375,10.657179375,6.15771484375C11.036119375,6.15771484375,11.367699375,6.48929384375,11.367699375,6.86824084375L11.367699375,15.86824484375C11.367699375,16.24721484375,11.036119375,16.57881484375,10.657179375,16.57881484375Z" fill="#FFFFFF" fill-opacity="1" style="mix-blend-mode:passthrough"/></g></g></svg>