<svg xmlns="http://www.w3.org/2000/svg" xmlns:xlink="http://www.w3.org/1999/xlink" version="1.1" width="20" height="20" viewBox="0 0 20 20"><defs><clipPath id="master_svg0_589_4554"><rect x="0" y="0" width="20" height="20" rx="0"/></clipPath></defs><g clip-path="url(#master_svg0_589_4554)"><g><path d="M16,7.69038Q16,7.85774,15.9914,8.00837Q15.9827,8.158999999999999,15.9655,8.326360000000001Q15.8101,9.71548,15.3353,10.99582Q14.8604,12.2762,14.1353,13.4561Q13.41007,14.636,12.46043,15.7238Q11.51079,16.811700000000002,10.40576,17.8159Q10.25036,18,10.00863,18Q9.74964,18,9.59424,17.8159Q8.48921,16.811700000000002,7.53094,15.7071Q6.57266,14.6025,5.83885,13.3975Q5.10504,12.1925,4.630216,10.8954Q4.155395,9.59833,4.0172662,8.19247Q4.0172662,8.05858,4.00863312,7.94142Q4,7.82427,4,7.69038Q4,6.51883,4.47482,5.4811700000000005Q4.9496400000000005,4.44351,5.76115,3.67364Q6.57266,2.903766,7.66906,2.451883Q8.76547,2.0000000624103,10.00863,2Q11.2518,1.9999999375897,12.33957,2.451883Q13.42734,2.903766,14.2388,3.67364Q15.0504,4.44351,15.5252,5.4811700000000005Q16,6.51883,16,7.69038ZM10.00863,10.30126Q10.578420000000001,10.30126,11.079139999999999,10.09205Q11.57986,9.88284,11.951080000000001,9.53138Q12.3223,9.17992,12.53813,8.70293Q12.75396,8.22594,12.75396,7.69038Q12.75396,7.15481,12.53813,6.67782Q12.3223,6.20084,11.951080000000001,5.84937Q11.57986,5.49791,11.079139999999999,5.2887Q10.578420000000001,5.0794999999999995,10.00863,5.0794999999999995Q9.43885,5.0794999999999995,8.938130000000001,5.2887Q8.43741,5.49791,8.057559999999999,5.84937Q7.6777,6.20084,7.461869999999999,6.67782Q7.24604,7.15481,7.24604,7.69038Q7.24604,8.22594,7.461869999999999,8.70293Q7.6777,9.17992,8.057559999999999,9.53138Q8.43741,9.88284,8.938130000000001,10.09205Q9.43885,10.30126,10.00863,10.30126Z" fill-opacity="1"/></g></g></svg>