<svg xmlns="http://www.w3.org/2000/svg" xmlns:xlink="http://www.w3.org/1999/xlink" version="1.1" width="20" height="20" viewBox="0 0 20 20"><g><g><path d="M18,9.40408Q18,9.721599999999999,17.9725,10.03796Q17.9449,10.35431,17.8901,10.66718Q17.8352,10.98004,17.7534,11.28712Q17.671599999999998,11.5942,17.563499999999998,11.89324Q17.4553,12.1923,17.3217,12.4811Q17.188000000000002,12.7699,17.0298,13.0463Q16.8716,13.3228,16.689999999999998,13.5848Q16.5083,13.8469,16.3047,14.0926Q16.101,14.3384,15.8768,14.566Q15.6525,14.7937,15.4094,15.0015Q15.1662,15.2093,14.9059,15.3959Q14.6457,15.5824,14.3702,15.7462Q14.0946,15.9101,13.8059,16.0501Q13.5172,16.189999999999998,13.2175,16.3051Q12.91769,16.420099999999998,12.60903,16.5094Q12.30038,16.5987,11.98511,16.6616L11.00649,18.2025Q10.965869999999999,18.2664,10.91062,18.3183Q10.85537,18.3702,10.788969999999999,18.4067Q10.72256,18.4431,10.64917,18.462Q10.57577,18.4808,10.5,18.4808Q10.42423,18.4808,10.35083,18.462Q10.27744,18.4431,10.21104,18.4067Q10.14463,18.3702,10.08938,18.3183Q10.034130000000001,18.2664,9.99351,18.2025L9.014890000000001,16.6616Q8.699629999999999,16.5987,8.39097,16.5094Q8.08231,16.420099999999998,7.78254,16.3051Q7.48276,16.189999999999998,7.19405,16.0501Q6.90535,15.9101,6.629849999999999,15.7462Q6.35435,15.5824,6.09406,15.3959Q5.83378,15.2093,5.59063,15.0015Q5.3474699999999995,14.7937,5.12324,14.566Q4.899,14.3384,4.69533,14.0926Q4.4916599999999995,13.8469,4.31005,13.5848Q4.12844,13.3228,3.970217,13.0463Q3.811997,12.7699,3.678332,12.4811Q3.544667,12.1923,3.436538,11.89324Q3.328408,11.5942,3.246609,11.28712Q3.164809,10.98004,3.10994,10.66718Q3.0550712,10.35431,3.0275356,10.03796Q3,9.721599999999999,3,9.40408Q3,9.22232,3.00903408,9.04078Q3.0180682,8.85924,3.0361145,8.67836Q3.0541609,8.49747,3.0811762,8.31768Q3.108191,8.13788,3.14411,7.95962Q3.180029,7.78135,3.224766,7.60504Q3.269502,7.42872,3.322947,7.25479Q3.376393,7.08086,3.438419,6.90972Q3.500446,6.73859,3.570903,6.57066Q3.641361,6.40274,3.7200800000000003,6.23843Q3.798799,6.07412,3.88559,5.913819999999999Q3.972381,5.75352,4.06704,5.59762Q4.16169,5.44172,4.26398,5.29059Q4.36627,5.13947,4.47594,4.99347Q4.5856200000000005,4.84748,4.70242,4.70698Q4.81922,4.56648,4.94287,4.4318Q5.06651,4.29713,5.1967,4.16861Q5.326890000000001,4.04008,5.46331,3.9180200000000003Q5.59973,3.79596,5.74205,3.68065Q5.8843700000000005,3.56534,6.0322499999999994,3.45707Q6.18014,3.34879,6.33322,3.2478100000000003Q6.48631,3.14683,6.64423,3.0533900000000003Q6.80215,2.9599450000000003,6.96452,2.874265Q7.1269,2.788583,7.29334,2.710871Q7.45977,2.633159,7.62987,2.563602Q7.79997,2.494046,7.97333,2.432812Q8.14668,2.371579,8.32287,2.318817Q8.49905,2.266055,8.67765,2.221891Q8.85625,2.177727,9.036819999999999,2.142267Q9.2174,2.106808,9.399519999999999,2.080138Q9.58164,2.0534683,9.76487,2.0356527Q9.9481,2.0178371,10.13199,2.00891854Q10.31589,2,10.5,2Q10.68411,2,10.86801,2.00891854Q11.0519,2.0178371,11.23513,2.0356527Q11.41836,2.0534683,11.60048,2.080138Q11.7826,2.106808,11.96318,2.142267Q12.14375,2.177727,12.32235,2.221891Q12.50095,2.266055,12.67713,2.318817Q12.85332,2.371579,13.0267,2.432812Q13.2,2.494046,13.3701,2.563602Q13.5402,2.633159,13.7067,2.710871Q13.8731,2.788583,14.0355,2.874265Q14.1978,2.9599450000000003,14.3558,3.0533900000000003Q14.5137,3.14683,14.6668,3.2478100000000003Q14.8199,3.34879,14.9677,3.45707Q15.1156,3.56534,15.2579,3.68065Q15.4003,3.79596,15.5367,3.9180200000000003Q15.6731,4.04008,15.8033,4.16861Q15.9335,4.29713,16.0571,4.4318Q16.180799999999998,4.56648,16.2976,4.70698Q16.4144,4.84748,16.5241,4.99347Q16.633699999999997,5.13947,16.736,5.29059Q16.8383,5.44172,16.933,5.59762Q17.0276,5.75352,17.1144,5.913819999999999Q17.2012,6.07412,17.279899999999998,6.23843Q17.3586,6.40274,17.4291,6.57066Q17.4996,6.73859,17.5616,6.90972Q17.6236,7.08086,17.6771,7.25479Q17.7305,7.42872,17.775199999999998,7.60504Q17.82,7.78135,17.8559,7.95962Q17.8918,8.13788,17.918799999999997,8.31768Q17.9458,8.49747,17.963900000000002,8.67836Q17.9819,8.85924,17.991,9.04078Q18,9.22232,18,9.40408ZM10.5,13Q10.67194,13,10.843060000000001,12.9831Q11.01418,12.9663,11.18282,12.9327Q11.35146,12.8992,11.516,12.8493Q11.68054,12.7994,11.83939,12.7336Q11.99825,12.6678,12.14989,12.5867Q12.30153,12.5057,12.4445,12.4101Q12.58746,12.3146,12.72038,12.2055Q12.85329,12.0965,12.97487,11.97487Q13.0965,11.85329,13.2055,11.72038Q13.3146,11.58746,13.4101,11.44449Q13.5057,11.30153,13.5867,11.14989Q13.6678,10.99825,13.7336,10.83939Q13.7994,10.68054,13.8493,10.516Q13.8992,10.35146,13.9327,10.18282Q13.9663,10.01418,13.9831,9.843060000000001Q14,9.67194,14,9.5Q14,9.32806,13.9831,9.156939999999999Q13.9663,8.98582,13.9327,8.81718Q13.8992,8.64854,13.8493,8.484Q13.7994,8.31946,13.7336,8.16061Q13.6678,8.001750000000001,13.5867,7.85011Q13.5057,7.69847,13.4101,7.5555Q13.3146,7.41254,13.2055,7.27962Q13.0965,7.14671,12.97487,7.02513Q12.85329,6.90354,12.72038,6.79446Q12.58746,6.68538,12.44449,6.58986Q12.30153,6.49433,12.14989,6.41328Q11.99825,6.33222,11.83939,6.26642Q11.68054,6.20062,11.516,6.15071Q11.35146,6.1008,11.18282,6.06725Q11.01418,6.03371,10.843060000000001,6.01685Q10.67194,6,10.5,6Q10.32806,6,10.156939999999999,6.01685Q9.98582,6.03371,9.81718,6.06725Q9.64854,6.1008,9.484,6.15071Q9.31946,6.20062,9.16061,6.26642Q9.001750000000001,6.33222,8.85011,6.41328Q8.69847,6.49433,8.5555,6.58986Q8.41254,6.68538,8.279620000000001,6.79446Q8.146709999999999,6.90354,8.02513,7.02513Q7.90354,7.14671,7.79446,7.27962Q7.68538,7.41254,7.58986,7.5555Q7.49433,7.69847,7.41328,7.85011Q7.33222,8.001750000000001,7.26642,8.16061Q7.20062,8.31946,7.15071,8.484Q7.1008,8.64854,7.06725,8.81718Q7.03371,8.98582,7.01685,9.156939999999999Q7,9.32806,7,9.5Q7,9.67194,7.01685,9.843060000000001Q7.03371,10.01418,7.06725,10.18282Q7.1008,10.35146,7.15071,10.516Q7.20062,10.68054,7.26642,10.83939Q7.33222,10.99825,7.41328,11.14989Q7.49433,11.30153,7.58986,11.4445Q7.68538,11.58746,7.79446,11.72038Q7.90354,11.85329,8.02513,11.97487Q8.146709999999999,12.0965,8.279620000000001,12.2055Q8.41254,12.3146,8.5555,12.4101Q8.69847,12.5057,8.85011,12.5867Q9.001750000000001,12.6678,9.16061,12.7336Q9.31946,12.7994,9.484,12.8493Q9.64854,12.8992,9.81718,12.9327Q9.98582,12.9663,10.156939999999999,12.9831Q10.32806,13,10.5,13Z" fill-rule="evenodd"  fill-opacity="1"/></g></g></svg>