<svg xmlns="http://www.w3.org/2000/svg" xmlns:xlink="http://www.w3.org/1999/xlink" version="1.1" width="20" height="20" viewBox="0 0 20 20"><g><g><path d="M13.36819,12.6726C14.9566,11.62211,16,9.849350000000001,16,7.83942C16,4.6144,13.31371,2,10,2C6.68629,2,4,4.6144,4,7.83942C4,9.849350000000001,5.0434,11.62211,6.63181,12.6726L9.68823,17.8248C9.8268,18.0584,10.173210000000001,18.0584,10.31177,17.8248L13.36819,12.6726Z" fill-rule="evenodd" fill-opacity="1"/><path d="M13.36819,12.6726C14.9566,11.62211,16,9.849350000000001,16,7.83942C16,4.6144,13.31371,2,10,2C6.68629,2,4,4.6144,4,7.83942C4,9.849350000000001,5.0434,11.62211,6.63181,12.6726L9.68823,17.8248C9.8268,18.0584,10.173210000000001,18.0584,10.31177,17.8248L13.36819,12.6726ZM14.4059,10.12963Q13.82689,11.17034,12.81655,11.83854L12.62519,11.9651L10,16.3904L7.37481,11.9651L7.183450000000001,11.83854Q6.173109999999999,11.17034,5.59412,10.12963Q5,9.06175,5,7.83942Q5,5.84283,6.45481,4.426959999999999Q7.92101,3,10,3Q12.07899,3,13.54519,4.426959999999999Q15,5.84283,15,7.83942Q15,9.06175,14.4059,10.12963Z" fill-rule="evenodd" fill-opacity="1"/></g></g></svg>