<svg viewBox="0 0 1024 1024" version="1.1" xmlns="http://www.w3.org/2000/svg" fill="greenyellow" width="20"><path d="M895.616384 347.812188q0 10.22977-0.511489 19.436563t-1.534466 19.436563q-9.206793 84.907093-37.338661 163.164835t-71.096903 150.377622-99.228771 138.613387-121.734266 127.872128q-9.206793 11.252747-23.528472 11.252747-15.344655 0-24.551449-11.252747-65.470529-61.378621-122.245754-128.895105t-100.251748-141.170829-71.608392-152.935065-36.315684-165.210789q0-8.183816-0.511489-15.344655t-0.511489-15.344655q0-71.608392 28.131868-135.032967t76.211788-110.481518 113.038961-74.677323 138.613387-27.62038 138.101898 27.62038 112.527473 74.677323 76.211788 110.481518 28.131868 135.032967zM540.643357 507.396603q33.758242 0 63.424575-12.787213t51.66034-34.26973 34.781219-50.637363 12.787213-61.89011-12.787213-61.89011-34.781219-50.637363-51.66034-34.26973-63.424575-12.787213-63.424575 12.787213-52.171828 34.26973-35.292707 50.637363-12.787213 61.89011 12.787213 61.89011 35.292707 50.637363 52.171828 34.26973 63.424575 12.787213z"></path></svg>